<svg xmlns="http://www.w3.org/2000/svg" width="128" height="128" viewBox="0 0 128 128">
  <title>LAPTOP</title>
  <g>
    <path d="M110.8,87.514V31.654a1.75,1.75,0,0,0-1.75-1.75h-90.1a1.75,1.75,0,0,0-1.75,1.75v55.86a1.75,1.75,0,0,0,1.75,1.75h90.1A1.75,1.75,0,0,0,110.8,87.514Zm-3.5-1.75H20.7V33.4h86.6Z"/>
    <path d="M121.693,92.487h-4.168V29.434a6.258,6.258,0,0,0-6.252-6.252H16.727a6.258,6.258,0,0,0-6.252,6.252V92.487H6.307a1.751,1.751,0,0,0-1.75,1.75v4.331a6.257,6.257,0,0,0,6.25,6.25H117.193a6.256,6.256,0,0,0,6.25-6.25V94.237A1.75,1.75,0,0,0,121.693,92.487ZM13.975,29.434a2.754,2.754,0,0,1,2.752-2.752h94.546a2.754,2.754,0,0,1,2.752,2.752V92.487H77.144a1.75,1.75,0,0,0-1.75,1.75v.935H52.606v-.935a1.751,1.751,0,0,0-1.75-1.75H13.975ZM119.943,98.568a2.753,2.753,0,0,1-2.75,2.75H10.807a2.754,2.754,0,0,1-2.75-2.75V95.987H49.106v.935a1.75,1.75,0,0,0,1.75,1.75H77.144a1.75,1.75,0,0,0,1.75-1.75v-.935h41.049Z"/>
  </g>
</svg>
