<svg xmlns="http://www.w3.org/2000/svg" width="128" height="128" viewBox="0 0 128 128">
  <title>SMARTPHONE</title>
  <g>
    <path d="M91.479,4.557H36.521a6.76,6.76,0,0,0-6.753,6.753V116.69a6.76,6.76,0,0,0,6.753,6.753H91.479a6.76,6.76,0,0,0,6.753-6.753V11.31A6.76,6.76,0,0,0,91.479,4.557Zm-14.115,3.5L74.94,13.009H53.06L50.636,8.057ZM94.732,116.69a3.256,3.256,0,0,1-3.253,3.253H36.521a3.256,3.256,0,0,1-3.253-3.253V11.31a3.256,3.256,0,0,1,3.253-3.253H46.74L50.4,15.528a1.751,1.751,0,0,0,1.572.981H76.032a1.751,1.751,0,0,0,1.572-.981L81.26,8.057H91.479a3.256,3.256,0,0,1,3.253,3.253Z"/>
    <path d="M70.686,111.491H57.314a1.75,1.75,0,0,0,0,3.5H70.686a1.75,1.75,0,0,0,0-3.5Z"/>
  </g>
</svg>
